#!OML:ASF I:\salsa\salsa 7_09\Patient 1\Session 1\dancerfemale.ASF
:FULLY-SPECIFIED
:DEGREES
2566
root -6.32784 15.6637 -5.05295 -2448.33 76.4202 432.108
lowerback 7.24951 0.264143 -7.69144
upperback -5.01403 -0.792429 -5.91995
thorax -9.45995 -0.0148124 -1.92987
lowerneck 0.0915515 -5.12865 -8.09332
upperneck 9.14745 -7.62801 13.3631
head 3.50254 -3.51802 5.16199
rclavicle -1.20265e-014 1.59028e-015
rhumerus -51.9662 4.40391 -92.4418
rradius 83.1036
rwrist -36.6394
rhand -1.4385 424.713
rfingers 7.12502
rthumb 24.2118 396.222
lclavicle -1.20265e-014 1.59028e-015
lhumerus -14.887 4.617 87.338
lradius 112.416
lwrist -33.4156
lhand -2.53408 -311.912
lfingers 7.12502
lthumb 23.1611 -2443.28
rfemur -19.0973 -6.48976 9.3785
rtibia 69.0878
rfoot -10.7058 -10.2996
rtoes -16.0911
lfemur -14.887 8.48317 -36.4126
ltibia 39.6472
lfoot -21.9361 -1.92792
ltoes -21.5079
2567
root -6.47342 15.7165 -5.0918 -2458.28 76.2408 422.334
lowerback 7.3776 0.172006 -6.4775
upperback -4.77486 -0.79648 -5.907
thorax -9.27306 -0.110885 -2.57839
lowerneck -0.528224 -4.45957 -7.67111
upperneck 9.17503 -6.68847 13.0741
head 3.48671 -3.03379 5.03158
rclavicle 6.26172e-015 -1.23246e-014
rhumerus -51.6558 5.2085 -91.7972
rradius 81.7138
rwrist -33.2528
rhand -1.2323 425.795
rfingers 7.12502
rthumb 24.4095 397.329
lclavicle 6.26172e-015 -1.23246e-014
lhumerus -16.1287 4.0499 88.6858
lradius 112.214
lwrist -32.8823
lhand -1.84882 -311.825
lfingers 7.12502
lthumb 23.8184 -2443.28
rfemur -15.7265 -5.55006 10.1768
rtibia 65.6248
rfoot -10.326 -9.87799
rtoes -15.5215
lfemur -15.9817 9.73462 -35.7525
ltibia 40.8098
lfoot -20.8891 -1.01949
ltoes -23.1177
2568
root -6.6268 15.7622 -5.10659 -2466.78 76.9499 413.998
lowerback 7.55771 -0.287034 -4.66061
upperback -4.48167 -1.21548 -5.55542
thorax -9.06724 -0.437219 -3.13737
lowerneck -0.946993 -3.7041 -7.31663
upperneck 9.13417 -5.63581 12.7924
head 3.41377 -2.50475 4.92431
rclavicle -1.82385e-014 0
rhumerus -51.379 5.91953 -91.1644
rradius 80.808
rwrist -29.6935
rhand -1.5137 426.825
rfingers 7.12502
rthumb 24.1397 398.324
lclavicle -1.82385e-014 0
lhumerus -17.3974 3.96787 89.7986
lradius 111.85
lwrist -32.5327
lhand -0.604558 -311.245
lfingers 7.12502
lthumb 25.0112 -2442.86
rfemur -11.8336 -4.91394 12.1843
rtibia 61.0612
rfoot -10.3919 -10.3629
rtoes -14.9705
lfemur -17.7457 10.5352 -33.9818
ltibia 43.1161
lfoot -19.2187 -0.462865
ltoes -24.052
2569
root -6.79859 15.7973 -5.11041 -2475.29 77.6912 405.748
lowerback 8.14596 -0.78107 -2.85691
upperback -4.18293 -1.70439 -5.22622
thorax -9.13006 -0.789759 -3.71299
lowerneck -1.3509 -3.0466 -6.79348
upperneck 9.10205 -4.73139 12.5915
head 3.36126 -2.03839 4.80627
rclavicle 2.73329e-015 4.6118e-014
rhumerus -51.2025 6.20595 -90.5583
rradius 80.4568
rwrist -26.6062
rhand -2.04329 427.735
rfingers 7.12502
rthumb 23.6319 399.168
lclavicle 2.73329e-015 4.6118e-014
lhumerus -18.868 3.74893 90.5679
lradius 111.533
lwrist -32.471
lhand 0.863246 -309.868
lfingers 7.12502
lthumb 26.417 -2441.69
rfemur -7.72441 -4.35047 14.2877
rtibia 55.6128
rfoot -11.0269 -11.118
rtoes -12.3841
lfemur -20.0938 11.3815 -32.0052
ltibia 46.3948
lfoot -17.0301 -0.0865695
ltoes -24.2147
2570
root -6.9818 15.8352 -5.0999 -2484.1 77.5143 396.475
lowerback 8.51969 -1.0064 -1.87649
upperback -4.31468 -1.90591 -4.82101
thorax -9.51821 -0.944147 -3.79778
lowerneck -1.73066 -2.46125 -6.28941
upperneck 9.22373 -3.93427 12.301
head 3.36672 -1.62563 4.65956
rclavicle 5.41688e-015 1.59028e-015
rhumerus -51.0915 6.48519 -89.8129
rradius 80.2813
rwrist -24.4953
rhand -2.56171 428.391
rfingers 7.12502
rthumb 23.1345 399.76
lclavicle 5.41688e-015 1.59028e-015
lhumerus -20.7616 3.57666 91.1877
lradius 111.401
lwrist -32.6307
lhand 2.73878 -308.648
lfingers 7.12502
lthumb 28.2109 -2440.75
rfemur -4.67795 -3.29122 15.9761
rtibia 49.6308
rfoot -15.6574 -10.5228
rtoes -20.9735
lfemur -23.9816 13.2663 -30.5727
ltibia 50.6749
lfoot -14.5448 0.277789
ltoes -26.8796
2571
root -7.17016 15.8312 -5.07705 -2492.38 77.858 387.599
lowerback 8.69254 -1.55276 -0.552666
upperback -4.41335 -2.46399 -4.27953
thorax -9.78896 -1.29132 -3.86509
lowerneck -2.09176 -1.77317 -5.88653
upperneck 9.35102 -3.00293 12.0708
head 3.36682 -1.14869 4.55486
rclavicle 2.0276e-014 3.97569e-015
rhumerus -50.6983 7.03421 -89.2364
rradius 80.2533
rwrist -23.2441
rhand -2.64282 428.938
rfingers 7.12502
rthumb 23.0567 400.297
lclavicle 2.0276e-014 3.97569e-015
lhumerus -22.5605 3.88283 91.3464
lradius 111.315
lwrist -32.7608
lhand 4.53856 -308.219
lfingers 7.12502
lthumb 29.9297 -2440.62
rfemur -2.14092 -2.89107 18.175
rtibia 43.7702
rfoot -18.9993 -10.4903
rtoes -25.1026
lfemur -28.5669 14.8302 -28.7981
ltibia 55.4204
lfoot -11.8986 0.719143
ltoes -29.7686
2572
root -7.36099 15.8143 -5.0421 -2504.84 77.4635 374.097
lowerback 8.64538 -1.7919 1.23228
upperback -4.61065 -2.51585 -3.472
thorax -10.0228 -1.41717 -3.99447
lowerneck -2.41422 -1.18292 -5.17955
upperneck 9.3531 -2.19556 11.6034
head 3.33659 -0.737245 4.31889
rclavicle -1.04362e-015 -9.54166e-015
rhumerus -50.1452 7.37628 -88.5697
rradius 80.5734
rwrist -22.2572
rhand -2.06895 429.741
rfingers 7.12502
rthumb 23.6073 401.17
lclavicle -1.04362e-015 -9.54166e-015
lhumerus -24.3743 3.9811 91.251
lradius 111.372
lwrist -32.6683
lhand 5.33506 -307.48
lfingers 7.12502
lthumb 30.6895 -2440.02
rfemur -1.01333 -2.13519 21.2479
rtibia 38.9414
rfoot -20.9902 -10.658
rtoes -26.422
lfemur -33.7822 16.9206 -26.3295
ltibia 60.2364
lfoot -9.72576 1.33678
ltoes -29.5008
2573
root -7.53832 15.7747 -5.01115 -2515.54 75.8808 362.045
lowerback 8.34964 -1.81192 2.86734
upperback -4.9212 -2.27538 -2.61241
thorax -10.2039 -1.38971 -4.03819
lowerneck -2.62497 -0.556547 -4.48774
upperneck 9.21945 -1.33242 11.0888
head 3.25234 -0.308623 4.07224
rclavicle -2.5345e-015 -3.18055e-015
rhumerus -49.3883 7.92353 -87.9683
rradius 80.957
rwrist -20.874
rhand -1.75597 430.656
rfingers 7.12502
rthumb 23.9074 402.124
lclavicle -2.5345e-015 -3.18055e-015
lhumerus -26.3216 4.43848 91.0449
lradius 111.613
lwrist -32.3431
lhand 5.29499 -306.42
lfingers 7.12502
lthumb 30.6513 -2438.95
rfemur -1.02777 -1.58283 23.9891
rtibia 35.568
rfoot -23.2024 -9.66339
rtoes -26.179
lfemur -38.9476 19.2766 -24.0983
ltibia 64.2479
lfoot -7.55959 1.91191
ltoes -24.8399
2574
root -7.72732 15.6532 -4.99754 -2522.76 72.6844 352.755
lowerback 7.67221 -1.42458 4.53777
upperback -5.50589 -1.47953 -1.7228
thorax -10.4026 -1.09925 -4.16835
lowerneck -2.80061 0.103289 -3.89996
upperneck 9.10006 -0.431101 10.6645
head 3.17409 0.13852 3.87245
rclavicle 1.38652e-014 -1.35174e-014
rhumerus -48.4023 8.60245 -87.5489
rradius 81.2377
rwrist -19.1292
rhand -1.89359 431.58
rfingers 7.12502
rthumb 23.7755 403.031
lclavicle 1.38652e-014 -1.35174e-014
lhumerus -28.5877 5.1867 90.4845
lradius 112.027
lwrist -31.7736
lhand 5.13416 -305.952
lfingers 7.12502
lthumb 30.4979 -2438.46
rfemur -2.65521 -0.889302 26.5428
rtibia 33.7109
rfoot -24.8127 -7.6867
rtoes -23.5517
lfemur -44.6002 21.7019 -22.1543
ltibia 67.0027
lfoot -9.01148 7.56095
ltoes -16.0097
2575
root -7.89844 15.5605 -5.00237 -2526.64 69.3578 347.096
lowerback 7.28587 -1.07077 6.02056
upperback -5.94687 -0.747636 -0.890841
thorax -10.6084 -0.82905 -4.23056
lowerneck -3.01047 0.771763 -3.36204
upperneck 9.00408 0.487259 10.121
head 3.11716 0.587903 3.64522
rclavicle -5.06901e-015 -6.36111e-015
rhumerus -47.1448 9.38042 -87.2132
rradius 81.5335
rwrist -17.5371
rhand -1.94393 432.581
rfingers 7.12502
rthumb 23.7272 404.025
lclavicle -5.06901e-015 -6.36111e-015
lhumerus -31.0708 6.34708 89.6371
lradius 112.626
lwrist -31.3578
lhand 5.2122 -306.036
lfingers 7.12502
lthumb 30.5724 -2438.55
rfemur -4.27528 -0.865297 28.6167
rtibia 32.5976
rfoot -26.0394 -5.21064
rtoes -21.0188
lfemur -48.5102 23.1402 -20.0198
ltibia 67.3724
lfoot -11.4436 12.1456
ltoes -12.7706
2576
root -8.04342 15.5293 -5.01584 -2528.07 65.935 344.338
lowerback 7.06608 -0.722792 6.9314
upperback -6.1538 -0.0976324 -0.128355
thorax -10.6417 -0.550741 -4.02329
lowerneck -3.05086 1.54642 -2.90577
upperneck 8.41633 1.61643 9.12357
head 3.19686 1.08555 3.64605
rclavicle 6.63444e-014 3.18055e-015
rhumerus -45.5637 10.2798 -87.0114
rradius 81.8418
rwrist -16.3353
rhand -1.78749 433.556
rfingers 7.12502
rthumb 23.8772 405.02
lclavicle 6.63444e-014 3.18055e-015
lhumerus -33.6054 8.03012 88.4943
lradius 113.157
lwrist -31.1942
lhand 5.04179 -306.404
lfingers 7.12502
lthumb 30.4098 -2438.89
rfemur -5.40057 -1.07958 29.9894
rtibia 31.5217
rfoot -26.7136 -2.29827
rtoes -18.5996
lfemur -50.3343 24.3017 -17.7144
ltibia 65.9827
lfoot -12.9427 13.7058
ltoes -10.4949
2577
root -8.17112 15.5343 -5.0267 -2529.07 62.5192 342.667
lowerback 7.36256 -0.400133 7.63502
upperback -6.10958 0.51368 0.547315
thorax -10.7055 -0.277408 -3.78632
lowerneck -3.04376 2.36311 -2.45163
upperneck 8.07782 2.75398 8.39158
head 3.00534 1.62663 3.32219
rclavicle -2.95195e-014 -3.1408e-014
rhumerus -43.8604 11.0833 -87.1016
rradius 82.1171
rwrist -15.3548
rhand -1.60946 434.153
rfingers 7.12502
rthumb 24.0479 405.639
lclavicle -2.95195e-014 -3.1408e-014
lhumerus -36.2034 9.92796 86.9189
lradius 113.502
lwrist -31.2813
lhand 4.58742 -306.864
lfingers 7.12502
lthumb 29.9764 -2439.27
rfemur -5.34493 -1.25707 31.18
rtibia 29.7693
rfoot -26.5723 0.633153
rtoes -16.267
lfemur -50.1061 25.6494 -15.0262
ltibia 62.7959
lfoot -12.4724 12.4535
ltoes -17.6367
2578
root -8.2727 15.5635 -5.02742 -2530.69 59.3402 341.165
lowerback 8.24299 -0.129967 8.48185
upperback -5.80763 1.10952 1.11721
thorax -10.8329 -0.026486 -3.75055
lowerneck -3.34512 3.08268 -1.94839
upperneck 8.17521 3.72748 7.74483
head 3.04809 2.10626 3.04282
rclavicle 3.59552e-014 -1.27222e-014
rhumerus -42.3888 11.8875 -87.4277
rradius 82.4725
rwrist -14.4941
rhand -1.6023 434.296
rfingers 7.12502
rthumb 24.0548 405.784
lclavicle 3.59552e-014 -1.27222e-014
lhumerus -39.0563 11.5488 84.959
lradius 113.557
lwrist -31.5079
lhand 4.61284 -307.31
lfingers 7.12502
lthumb 30.0006 -2439.72
rfemur -3.85503 -1.72805 32.4213
rtibia 27.3316
rfoot -26.0217 3.38867
rtoes -14.2054
lfemur -48.4248 26.9602 -11.9341
ltibia 59.5636
lfoot -11.2965 10.4792
ltoes -24.7079
2579
root -8.35035 15.6087 -5.00109 -2530.9 60.2535 339.591
lowerback 6.55438 -0.895096 8.96423
upperback -5.89952 -0.00417818 1.39353
thorax -10.0792 -0.551365 -3.53061
lowerneck -3.78054 3.7407 -1.34412
upperneck 8.51482 4.59704 7.13192
head 3.2203 2.54451 2.77459
rclavicle -5.23549e-014 -3.4191e-014
rhumerus -41.2502 12.6195 -87.9207
rradius 82.8488
rwrist -13.6581
rhand -1.67045 434.616
rfingers 7.12502
rthumb 23.9894 406.095
lclavicle -5.23549e-014 -3.4191e-014
lhumerus -41.9112 13.0359 82.8589
lradius 113.65
lwrist -31.9363
lhand 5.76964 -307.189
lfingers 7.12502
lthumb 31.1038 -2439.81
rfemur -3.95174 -4.0563 33.404
rtibia 24.6853
rfoot -25.8242 4.2733
rtoes -12.0629
lfemur -49.2079 24.5903 -10.7138
ltibia 56.3684
lfoot -9.5553 11.5572
ltoes -8.0853
2580
root -8.44767 15.6322 -5.00438 -2531.04 56.7611 339.899
lowerback 7.8637 -0.290737 8.95865
upperback -5.69575 0.97038 1.72632
thorax -10.5103 -0.0807043 -3.32783
lowerneck -3.90236 4.35371 -0.744526
upperneck 8.70289 5.40817 6.62268
head 3.2943 2.94996 2.53153
rclavicle -4.37326e-015 3.02153e-014
rhumerus -40.4601 13.0713 -88.6447
rradius 82.989
rwrist -12.5925
rhand -2.09007 435.059
rfingers 7.12502
rthumb 23.587 406.486
lclavicle -4.37326e-015 3.02153e-014
lhumerus -44.8327 14.3578 80.6959
lradius 113.844
lwrist -32.5336
lhand 7.3485 -306.027
lfingers 7.12502
lthumb 32.6074 -2438.94
rfemur -2.2387 -4.05926 33.8305
rtibia 22.2888
rfoot -24.8905 6.91396
rtoes -9.1313
lfemur -47.3403 27.5317 -9.41019
ltibia 54.9722
lfoot -9.83919 14.1897
ltoes -10.1042
